<svg xmlns="http://www.w3.org/2000/svg" xmlns:xlink="http://www.w3.org/1999/xlink" width="1254" zoomAndPan="magnify" viewBox="0 0 940.5 940.499971" height="1254" preserveAspectRatio="xMidYMid meet" version="1.0"><path fill="#ffffff" d="M 0 0 L 940 0 L 940 940 L 0 940 Z M 0 0 " fill-opacity="1" fill-rule="nonzero"/><path fill="#ffffff" d="M 0 0 L 940 0 L 940 940 L 0 940 Z M 0 0 " fill-opacity="1" fill-rule="nonzero"/><path fill="#000000" d="M 0 470 L 0 940 L 940 940 L 940 0 L 0 0 Z M 369.628906 170.085938 C 379.523438 172.257812 393.164062 177.054688 402.160156 181.554688 C 417.078125 189.050781 429.972656 198.417969 449.234375 216.035156 C 467 232.152344 470.375 233.875 484.46875 233.875 C 503.207031 233.875 524.269531 236.347656 542.710938 240.695312 C 602.304688 254.789062 655.976562 291.667969 683.863281 337.695312 C 688.582031 345.566406 695.105469 358.308594 694.65625 358.835938 C 694.429688 358.984375 693.007812 357.035156 691.507812 354.410156 C 679.738281 334.773438 660.546875 312.285156 643.234375 297.742188 C 608.152344 268.28125 567.148438 250.441406 519.472656 243.84375 C 506.207031 241.972656 470.375 241.972656 457.632812 243.84375 C 412.730469 250.367188 374.199219 265.433594 340.394531 289.570312 C 308.160156 312.660156 281.851562 344.066406 264.460938 380.046875 C 242.570312 425.398438 234.851562 473 242.195312 517.074219 C 243.921875 527.417969 248.042969 543.386719 250.292969 548.183594 L 251.792969 551.332031 L 251.265625 546.835938 C 250.292969 538.289062 250.742188 515.726562 252.164062 506.878906 C 256.140625 480.871094 267.382812 454.332031 283.648438 432.894531 C 289.570312 424.949219 303.140625 411.15625 311.085938 404.785156 C 335.070312 385.671875 363.632812 373.75 392.417969 370.976562 C 406.660156 369.554688 427.046875 371.425781 429.445312 374.277344 C 429.972656 374.949219 429.070312 376.523438 426.449219 379.671875 C 416.929688 391.066406 407.183594 408.457031 402.835938 421.726562 C 401.1875 426.972656 400.363281 428.320312 397.738281 430.421875 C 382.070312 443.015625 370.152344 456.65625 359.808594 473.75 C 349.6875 490.464844 342.867188 509.429688 339.042969 531.09375 C 337.246094 541.738281 337.171875 570.746094 339.042969 581.316406 C 343.316406 605.453125 351.5625 625.691406 365.054688 644.808594 C 370.527344 652.527344 383.496094 666.394531 391.140625 672.617188 C 417.902344 694.503906 452.984375 706.875 488.066406 706.875 C 503.957031 706.875 524.570312 703.875 528.320312 701.101562 C 529.445312 700.277344 531.019531 697.429688 532.367188 693.757812 C 539.863281 673.441406 549.683594 659.347656 565.347656 646.757812 C 577.71875 636.710938 592.636719 628.316406 610.476562 621.121094 L 618.644531 617.894531 L 622.769531 611.226562 C 639.636719 583.789062 647.730469 551.855469 645.40625 521.722656 C 642.933594 488.890625 631.089844 461.453125 610.175781 439.714844 C 594.058594 423.074219 575.542969 412.207031 554.703125 407.257812 C 544.359375 404.785156 523.445312 404.035156 512.953125 405.757812 L 506.054688 406.882812 L 498.335938 413.40625 C 478.546875 430.121094 452.683594 443.089844 428.773438 448.261719 C 421.050781 449.984375 405.535156 451.183594 405.535156 450.0625 C 405.535156 449.6875 408.984375 448.5625 413.253906 447.585938 C 432.671875 443.089844 454.558594 433.945312 471.425781 423.375 C 489.941406 411.757812 501.035156 400.886719 518.875 377.125 C 526.59375 366.78125 534.617188 362.355469 548.859375 360.558594 C 567.523438 358.234375 592.183594 361.15625 618.421875 368.730469 C 623.96875 370.304688 634.988281 373.527344 642.785156 375.773438 C 664.898438 382.222656 678.089844 384.546875 692.40625 384.546875 L 699.304688 384.546875 L 703.574219 393.316406 C 714.519531 416.179688 720.59375 434.769531 724.414062 457.257812 C 731.535156 499.308594 727.261719 542.5625 711.746094 584.3125 C 708 594.359375 697.804688 615.421875 691.882812 625.167969 C 675.617188 652.304688 653.425781 677.191406 629.140625 695.628906 C 626.140625 697.878906 623.742188 699.902344 623.667969 700.128906 C 623.667969 700.351562 625.46875 702.675781 627.640625 705.375 C 629.738281 708.074219 635.136719 715.496094 639.636719 721.941406 C 648.78125 735.210938 657.101562 743.90625 665.195312 748.550781 C 670.144531 751.402344 670.21875 751.476562 668.71875 752.675781 C 666.246094 754.699219 656.277344 758.597656 648.855469 760.46875 C 638.210938 763.167969 627.191406 764.070312 615.796875 763.09375 C 599.53125 761.820312 587.386719 758.523438 567.449219 749.976562 C 547.507812 741.429688 541.738281 740.757812 518.722656 744.578125 C 473.671875 752 429.597656 747.054688 386.71875 729.886719 C 302.539062 696.003906 242.644531 617.523438 229.753906 523.972656 C 228.105469 512.277344 227.429688 482.070312 228.554688 469.027344 C 233.652344 408.457031 262.433594 348.191406 306.738281 305.460938 C 320.753906 291.96875 335.371094 280.800781 355.011719 268.730469 C 364.679688 262.734375 370.378906 246.992188 368.203125 232 C 364.605469 207.039062 346.617188 185.601562 321.429688 176.15625 C 318.804688 175.183594 317.082031 174.132812 317.082031 173.457031 C 317.082031 171.957031 321.429688 170.234375 327.949219 168.960938 C 335.972656 167.386719 360.332031 168.0625 369.628906 170.085938 Z M 578.917969 306.0625 C 586.714844 308.160156 599.457031 313.78125 605.453125 317.90625 C 614.523438 324.128906 622.167969 333.199219 622.167969 337.84375 C 622.167969 343.46875 616.398438 345.265625 599.90625 344.589844 C 583.039062 343.917969 567 339.945312 551.257812 332.523438 C 539.9375 327.125 530.34375 319.628906 528.917969 314.984375 C 527.644531 310.933594 531.917969 307.1875 540.460938 304.9375 C 548.109375 302.839844 568.949219 303.4375 578.917969 306.0625 Z M 578.917969 306.0625 " fill-opacity="1" fill-rule="nonzero"/><path fill="#000000" d="M 627.417969 624.117188 C 606.878906 628.839844 591.886719 634.914062 578.691406 643.984375 C 558.679688 657.625 547.582031 673.816406 541.960938 697.578125 C 539.1875 709.046875 536.789062 715.121094 532.890625 720.292969 C 531.242188 722.464844 530.042969 724.414062 530.191406 724.566406 C 530.34375 724.789062 532.816406 725.539062 535.664062 726.363281 C 543.011719 728.386719 549.308594 731.3125 558.828125 737.234375 C 578.167969 749.226562 587.613281 753.574219 602.90625 757.472656 C 621.121094 762.042969 643.757812 760.996094 658.148438 754.773438 L 662.046875 753.125 L 656.125 750.277344 C 646.382812 745.628906 640.308594 739.855469 627.492188 723.441406 C 621.269531 715.496094 613.699219 708.523438 606.503906 704.101562 C 603.355469 702.152344 600.730469 700.503906 600.582031 700.425781 C 600.429688 700.351562 602.078125 698.027344 604.179688 695.253906 C 609.574219 688.132812 615.347656 675.839844 621.042969 659.425781 C 626.742188 642.933594 630.339844 634.085938 633.863281 627.566406 C 635.289062 625.019531 636.410156 622.695312 636.410156 622.542969 C 636.410156 622.019531 636.1875 622.09375 627.417969 624.117188 Z M 627.417969 624.117188 " fill-opacity="1" fill-rule="nonzero"/></svg>